#!OML:ASF E:\emotionWalksFemale\Project 1\Capture day 1\Session 1\Female1.ASF
:FULLY-SPECIFIED
:DEGREES
1397
root 9.34649 15.4154 -20.5498 -181.606 -8.88864 -178.332
lowerback 5.23021 -1.10861 -1.4228
upperback -5.15184 -1.81414 -0.458365
thorax -8.32642 -0.885079 0.548194
lowerneck -5.62716 -2.30333 -5.23831
upperneck 18.4228 -4.68193 6.49761
head 6.7888 -2.50023 2.56454
rclavicle -8.64713e-015 -6.75868e-015
rhumerus -47.2222 5.78396 -84.8649
rradius 42.0911
rwrist 2.20271
rhand 161.104 -71.0942
rfingers 7.12502
rthumb -172.595 -41.2438
lclavicle -8.64713e-015 -6.75868e-015
lhumerus -41.2965 -4.43146 87.901
lradius 39.1169
lwrist -4.88621
lhand -4.28228 -35.0749
lfingers 7.12502
lthumb 21.4829 -6.2462
rfemur -10.5024 9.8897 31.8561
rtibia 23.6435
rfoot -12.3025 -26.0501
rtoes 28.2185
lfemur -1.27922 3.0907 -18.731
ltibia 57.3515
lfoot 9.35093 -6.98845
ltoes -19.8822
1398
root 9.35723 15.4153 -20.6041 -181.706 -8.83988 -178.234
lowerback 5.41621 -1.09249 -1.45523
upperback -5.15352 -1.7931 -0.417858
thorax -8.43568 -0.868796 0.611071
lowerneck -5.47386 -2.28588 -5.47714
upperneck 18.4685 -4.69162 6.68767
head 6.78564 -2.51644 2.66722
rclavicle 3.94588e-014 3.97569e-015
rhumerus -47.2942 6.05729 -85.0588
rradius 42.2958
rwrist 2.20449
rhand 161.38 -71.0562
rfingers 7.12502
rthumb -172.328 -41.2153
lclavicle 3.94588e-014 3.97569e-015
lhumerus -41.0882 -4.41008 87.9633
lradius 38.9724
lwrist -5.33175
lhand -4.3664 -35.1234
lfingers 7.12502
lthumb 21.4021 -6.28549
rfemur -10.1621 9.89794 32.1236
rtibia 23.5102
rfoot -12.3705 -26.1005
rtoes 29.3107
lfemur -2.03952 3.30712 -18.3713
ltibia 58.5816
lfoot 9.18169 -6.89351
ltoes -17.3777
1399
root 9.36278 15.4132 -20.6636 -181.859 -8.85427 -178.22
lowerback 5.53868 -1.111 -1.50866
upperback -5.05415 -1.81502 -0.420405
thorax -8.39794 -0.873253 0.6422
lowerneck -5.42665 -2.21698 -5.45592
upperneck 18.4063 -4.60525 6.74713
head 6.75217 -2.46925 2.69044
rclavicle -1.48095e-014 7.95139e-016
rhumerus -47.2204 6.30455 -85.2287
rradius 42.4843
rwrist 2.2662
rhand 161.558 -71.1812
rfingers 7.12502
rthumb -172.157 -41.3467
lclavicle -1.48095e-014 7.95139e-016
lhumerus -40.8457 -4.58309 88.0448
lradius 38.9037
lwrist -5.50122
lhand -4.5324 -35.4603
lfingers 7.12502
lthumb 21.2426 -6.60431
rfemur -9.71626 9.83745 32.2758
rtibia 23.4573
rfoot -12.5726 -26.0994
rtoes 29.6596
lfemur -2.67732 3.44199 -18.1372
ltibia 59.7298
lfoot 8.67316 -7.1672
ltoes -16.3667
1400
root 9.36799 15.4137 -20.7233 -181.925 -8.85902 -178.159
lowerback 5.5514 -1.11966 -1.5135
upperback -4.94501 -1.81754 -0.42177
thorax -8.28685 -0.872466 0.642004
lowerneck -5.60303 -2.24231 -5.49689
upperneck 18.4178 -4.66106 6.94852
head 6.79586 -2.47768 2.75611
rclavicle 1.27222e-014 3.57812e-015
rhumerus -47.0351 6.38622 -85.3698
rradius 42.5472
rwrist 2.27258
rhand 161.614 -71.3816
rfingers 7.12502
rthumb -172.102 -41.5492
lclavicle 1.27222e-014 3.57812e-015
lhumerus -40.4997 -4.86013 88.1035
lradius 38.8487
lwrist -5.48479
lhand -4.67835 -35.7912
lfingers 7.12502
lthumb 21.1024 -6.91957
rfemur -9.39995 9.90005 32.4386
rtibia 23.4412
rfoot -12.6503 -26.1111
rtoes 28.7024
lfemur -3.42769 3.64979 -17.8611
ltibia 60.8191
lfoot 8.12312 -7.73423
ltoes -18.4266
1401
root 9.3718 15.4162 -20.787 -181.927 -8.85087 -178.282
lowerback 5.41445 -1.10386 -1.65082
upperback -4.88933 -1.81071 -0.503102
thorax -8.14537 -0.865543 0.62804
lowerneck -5.23469 -2.03435 -5.4753
upperneck 18.1849 -4.43734 7.24211
head 6.64527 -2.3588 2.86911
rclavicle -5.1684e-015 4.77083e-015
rhumerus -47.0984 6.40616 -85.5569
rradius 42.7373
rwrist 2.22419
rhand 161.581 -71.4244
rfingers 7.12502
rthumb -172.134 -41.5908
lclavicle -5.1684e-015 4.77083e-015
lhumerus -40.2795 -4.81647 88.0473
lradius 38.8969
lwrist -5.74852
lhand -4.60576 -35.9209
lfingers 7.12502
lthumb 21.1722 -7.05707
rfemur -9.07728 9.87601 32.3846
rtibia 23.3315
rfoot -12.746 -25.9961
rtoes 28.4247
lfemur -4.17199 3.89129 -17.8356
ltibia 61.8509
lfoot 7.39895 -8.05648
ltoes -21.0853
1402
root 9.37369 15.4106 -20.8458 -182.004 -8.80056 -178.246
lowerback 5.41233 -1.06594 -1.5476
upperback -4.88117 -1.7556 -0.573798
thorax -8.14152 -0.84713 0.489
lowerneck -5.42267 -2.13064 -5.37765
upperneck 18.545 -4.60984 7.14221
head 6.80181 -2.44813 2.80467
rclavicle -3.22031e-014 7.95139e-016
rhumerus -47.2581 6.47702 -85.7782
rradius 42.953
rwrist 2.13771
rhand 161.391 -71.3038
rfingers 7.12502
rthumb -172.317 -41.4633
lclavicle -3.22031e-014 7.95139e-016
lhumerus -40.1989 -4.8691 88.056
lradius 38.7947
lwrist -6.22078
lhand -5.06512 -36.3676
lfingers 7.12502
lthumb 20.7308 -7.45489
rfemur -8.65296 9.74449 32.5154
rtibia 23.1491
rfoot -12.839 -25.7977
rtoes 28.6809
lfemur -4.89111 4.13153 -17.6509
ltibia 62.9637
lfoot 6.43467 -8.05809
ltoes -22.3253
1403
root 9.37927 15.4007 -20.8855 -182.16 -8.71419 -177.807
lowerback 5.80294 -1.02472 -1.07814
upperback -4.91034 -1.65329 -0.508203
thorax -8.41394 -0.817149 0.291632
lowerneck -5.48733 -2.18877 -5.26532
upperneck 18.664 -4.68314 6.97123
head 6.8508 -2.48886 2.72359
rclavicle 3.02153e-014 4.37326e-015
rhumerus -47.2345 6.57638 -85.9258
rradius 43.01
rwrist 2.1139
rhand 161.377 -71.2918
rfingers 7.12502
rthumb -172.331 -41.4509
lclavicle 3.02153e-014 4.37326e-015
lhumerus -40.0495 -5.16215 88.182
lradius 38.5971
lwrist -6.4507
lhand -5.57377 -36.6344
lfingers 7.12502
lthumb 20.242 -7.66914
rfemur -8.37588 9.77169 33.1103
rtibia 23.1684
rfoot -12.9222 -25.823
rtoes 28.8781
lfemur -5.75088 4.33705 -16.994
ltibia 63.9751
lfoot 5.86405 -7.99403
ltoes -22.0322
